<svg width="377" height="78" viewBox="0 0 377 78" fill="none" xmlns="http://www.w3.org/2000/svg">
<path d="M187.5 76.2429V3.51562H234.091V14.5597H200.675V34.304H230.895V45.348H200.675V76.2429H187.5Z" fill="white"/>
<path d="M245.526 76.2429V21.6974H291V76.2429H245.526ZM251.989 13.956C249.953 13.956 248.201 13.2813 246.733 11.9318C245.265 10.5587 244.531 8.91335 244.531 6.99574C244.531 5.05445 245.265 3.40909 246.733 2.05966C248.201 0.686552 249.953 0 251.989 0C254.048 0 255.8 0.686552 257.244 2.05966C258.712 3.40909 259.446 5.05445 259.446 6.99574C259.446 8.91335 258.712 10.5587 257.244 11.9318C255.8 13.2813 254.048 13.956 251.989 13.956Z" fill="white"/>
<path d="M291 76.2429V21.6974H303.464V30.7884H304.033C305.027 27.6397 306.732 25.2131 309.146 23.5085C311.585 21.7803 314.366 20.9162 317.491 20.9162C318.202 20.9162 318.995 20.9517 319.871 21.0227C320.77 21.0701 321.516 21.1529 322.108 21.2713V33.0966C321.563 32.9072 320.699 32.7415 319.516 32.5994C318.356 32.4337 317.231 32.3509 316.142 32.3509C313.798 32.3509 311.691 32.8599 309.821 33.8778C307.974 34.8722 306.518 36.2571 305.453 38.0327C304.388 39.8082 303.855 41.8561 303.855 44.1761V60.2095V76.2429H291Z" fill="white"/>
<path d="M352.55 77.3082C347.081 77.3082 342.358 76.1719 338.381 73.8991C334.427 71.6027 331.385 68.3594 329.255 64.169C327.124 59.955 326.059 54.9953 326.059 49.2898C326.059 43.679 327.124 38.7547 329.255 34.517C331.409 30.2557 334.416 26.9413 338.275 24.5739C342.133 22.1828 346.667 20.9872 351.875 20.9872C355.237 20.9872 358.409 21.5317 361.392 22.6207C364.399 23.6861 367.051 25.3433 369.347 27.5923C371.667 29.8414 373.49 32.706 374.816 36.1861C376.141 39.6425 376.804 43.7618 376.804 48.544V52.4858H332.096V43.821H364.482C364.458 41.3589 363.926 39.169 362.884 37.2514C361.842 35.3101 360.386 33.7831 358.516 32.6705C356.669 31.5578 354.515 31.0014 352.053 31.0014C349.425 31.0014 347.117 31.6406 345.128 32.919C343.14 34.1738 341.589 35.831 340.476 37.8906C339.387 39.9266 338.831 42.1638 338.807 44.6023V52.1662C338.807 55.3385 339.387 58.0611 340.547 60.3338C341.707 62.5829 343.329 64.3111 345.412 65.5185C347.496 66.7022 349.934 67.294 352.728 67.294C354.598 67.294 356.291 67.0336 357.806 66.5128C359.321 65.9683 360.635 65.1752 361.747 64.1335C362.86 63.0919 363.701 61.8016 364.269 60.2628L376.272 61.6122C375.514 64.7846 374.07 67.5545 371.939 69.9219C369.832 72.2656 367.133 74.0885 363.843 75.3906C360.552 76.669 356.788 77.3082 352.55 77.3082Z" fill="white"/>
<path fill-rule="evenodd" clip-rule="evenodd" d="M138.21 76.2429V44.2827C138.21 44.207 138.211 44.1317 138.211 44.0567L138.281 30.9659V21.6974H125.994V76.2429H138.21ZM144.389 24.0496V33.3452C146.141 32.3509 148.142 31.8537 150.391 31.8537C153.705 31.8537 156.297 32.8835 158.168 34.9432C160.062 37.0028 161.009 39.8556 161.009 43.5014V76.2429H173.864V41.5128C173.887 37.1567 173.118 33.4517 171.555 30.3977C170.017 27.3438 167.839 25.0118 165.021 23.402C162.228 21.7921 158.949 20.9872 155.185 20.9872C151.113 20.9872 147.692 21.8868 144.922 23.6861C144.741 23.8045 144.564 23.9257 144.389 24.0496Z" fill="white"/>
<path fill-rule="evenodd" clip-rule="evenodd" d="M0 76.2429V3.51562H27.8409C33.0966 3.51562 37.4645 4.34422 40.9446 6.00142C44.4484 7.63494 47.0644 9.87216 48.7926 12.7131C50.5445 15.554 51.4205 18.7737 51.4205 22.3722C51.4205 25.3314 50.8523 27.8646 49.7159 29.9716C48.5795 32.0549 47.0526 33.7476 45.1349 35.0497C43.2173 36.3518 41.0748 37.2869 38.7074 37.8551V38.5653C41.2879 38.7074 43.7618 39.5005 46.1293 40.9446C46.7604 41.3195 47.3609 41.7356 47.931 42.193C47.6437 44.0738 47.5 46.0487 47.5 48.1179C47.5 53.7524 48.5653 58.6766 50.696 62.8906C51.1496 63.7779 51.642 64.6237 52.1733 65.428C51.9724 65.8193 51.7569 66.2046 51.527 66.5838C49.7041 69.5668 46.9579 71.9224 43.2884 73.6506C39.6188 75.3788 35.0024 76.2429 29.4389 76.2429H0ZM13.1747 65.2344H27.3438C32.1259 65.2344 35.5706 64.3229 37.6776 62.5C39.8082 60.6534 40.8736 58.286 40.8736 55.3977C40.8736 53.2434 40.3409 51.3021 39.2756 49.5739C38.2102 47.822 36.6951 46.4489 34.7301 45.4545C32.7652 44.4366 30.4214 43.9276 27.6989 43.9276H13.1747V65.2344ZM13.1747 34.446H26.2074C28.4801 34.446 30.5279 34.0317 32.3509 33.2031C34.1738 32.3509 35.6061 31.1553 36.6477 29.6165C37.7131 28.054 38.2457 26.2074 38.2457 24.0767C38.2457 21.2595 37.2514 18.9394 35.2628 17.1165C33.2978 15.2936 30.3741 14.3821 26.4915 14.3821H13.1747V34.446ZM77.2638 58.1676C78.071 60.4118 79.2137 62.2795 80.6919 63.7707C78.7964 65.22 76.4682 65.9446 73.7074 65.9446C70.7481 65.9446 68.286 65.1515 66.321 63.5653C66.016 63.3124 65.7229 63.0459 65.4418 62.7661C63.6878 58.8232 62.8107 54.2955 62.8107 49.1832C62.8107 43.5488 63.8761 38.6127 66.0067 34.375C66.4976 33.4095 67.0339 32.4932 67.6156 31.626C69.3349 30.6177 71.3654 30.1136 73.7074 30.1136C76.5956 30.1136 79.0104 30.9186 80.9517 32.5284C81.2786 32.7995 81.5914 33.0863 81.8901 33.389C81.803 33.4557 81.7169 33.524 81.6318 33.5938C79.6905 35.2036 78.2345 37.3698 77.2638 40.0923C76.3169 42.7912 75.8434 45.8097 75.8434 49.1477C75.8434 52.4621 76.3169 55.4688 77.2638 58.1676ZM79.2758 75.7583C82.1864 76.7916 85.4102 77.3082 88.9471 77.3082C94.2738 77.3082 98.8903 76.1364 102.797 73.7926C106.703 71.4489 109.721 68.17 111.852 63.956C114.006 59.742 115.083 54.8177 115.083 49.1832C115.083 43.5488 114.006 38.6127 111.852 34.375C109.721 30.1373 106.703 26.8466 102.797 24.5028C98.8903 22.1591 94.2738 20.9872 88.9471 20.9872C86.9694 20.9872 85.0895 21.1488 83.3076 21.4719C84.7805 21.9948 86.1733 22.65 87.4858 23.4375C91.392 25.7812 94.4105 29.072 96.5412 33.3097C96.6991 33.6204 96.8513 33.9348 96.9977 34.2531C98.5725 35.779 99.7715 37.7254 100.595 40.0923C101.565 42.7912 102.051 45.8097 102.051 49.1477C102.051 52.4621 101.565 55.4688 100.595 58.1676C99.6478 60.8665 98.2037 63.0208 96.2624 64.6307C95.8729 64.9489 95.4644 65.2352 95.0368 65.4896C93.0655 68.4771 90.5486 70.8896 87.4858 72.7273C85.0299 74.2008 82.2932 75.2112 79.2758 75.7583Z" fill="white"/>
</svg>
