<svg width="62" height="79" viewBox="0 0 62 79" fill="none" xmlns="http://www.w3.org/2000/svg">
<path fill-rule="evenodd" clip-rule="evenodd" d="M3.14529 67.115C3.14529 67.115 6.52195 68.3275 8.78406 68.5133C-9.89371 50.3363 7.02195 33.208 7.02195 33.208C7.02195 33.208 6.31777 42.9956 12.3083 43.3451C15.3829 42.8369 15.6431 40.5225 16.0975 36.4815C16.5807 32.1842 17.2834 25.9343 21.8237 17.8274C30.1579 20.0317 28.8575 7.9021 28.2777 2.49455C28.122 1.04167 28.0182 0.074029 28.1673 0C52.5685 13.1472 51.2191 25.0173 50.3128 32.9904C50.1588 34.3449 50.0176 35.5869 50.0176 36.7035C50.4589 37.0353 50.8096 37.4122 51.1417 37.769C51.8172 38.4948 52.4157 39.1378 53.5418 39.1504C56.189 39.1801 56.7137 33.208 56.7137 33.208C56.7137 33.208 62 40.1991 62 50.6858C62 61.1726 51.7797 68.5133 51.7797 68.5133L52.4846 69.2124L55.304 68.8628C55.304 68.8628 48.0067 77.645 33.8326 78.6504C34.1851 78.3009 34.1847 78.3548 34.1847 78.3009C34.1847 78.3009 42.6429 69.9115 43.7001 62.5708C43.1277 61.6684 41.938 60.4735 41.938 60.4735C41.938 60.4735 42.2759 57.5782 41.2332 56.2788C39.678 57.5644 38.6815 56.7375 37.5714 55.8165C37.1724 55.4854 36.7588 55.1422 36.2993 54.8805C30.5253 51.593 34.1847 38.1018 34.1847 38.1018C34.1847 38.1018 24.6696 44.7434 21.4975 60.823C20.8943 61.0518 20.4892 61.0923 20.074 61.1338C19.4801 61.1931 18.8654 61.2546 17.6208 61.8717C17.6211 64.5668 26.7864 77.6516 27.4507 78.5965C11.1398 77.6869 3.14529 67.115 3.14529 67.115Z" fill="url(#paint0_linear_266_10)"/>
<defs>
<linearGradient id="paint0_linear_266_10" x1="31" y1="0" x2="31" y2="79" gradientUnits="userSpaceOnUse">
<stop stop-color="#FF6A00"/>
<stop offset="1" stop-color="#FF3300"/>
</linearGradient>
</defs>
</svg>
